<?xml version="1.0" encoding="utf-8"?>
<!-- Generator: Adobe Illustrator 27.3.1, SVG Export Plug-In . SVG Version: 6.00 Build 0)  -->
<svg version="1.1" id="Layer_1" xmlns="http://www.w3.org/2000/svg" xmlns:xlink="http://www.w3.org/1999/xlink" x="0px" y="0px"
	 viewBox="0 0 385.3 454.6" style="enable-background:new 0 0 385.3 454.6;" xml:space="preserve">
<style type="text/css">
	.st0{fill:#FFFFFF;stroke:#231F20;stroke-width:6;stroke-miterlimit:10;}
	.st1{fill:#FFCA34;}
	.st2{fill:#FFFFFF;}
	.st3{fill:#78BC61;}
	.st4{font-family:'Figtree-ExtraBold';}
	.st5{font-size:153.5848px;}
</style>
<g id="fries_00000002357097122098542950000003164281073148124834_">
	<g id="fries-package">
		<path class="st0" d="M25.9,227.9c2.2-2.3,20.3-0.1,23.8-0.1h15.4c0,0,23.2,46,100.3,47.3c16.3,0.3,71.7-2.7,99.1-47.3h39.3
			c0,0,6.5-1.2,3.6,14.3s-31,202.4-31,202.4s0,5.4-8.3,6.5s-208.9,0-208.9,0s-5.4,2.4-6.5-14.3c-2-28.5-8.1-57-12.5-85.2
			c-5.5-35-11-70.1-16.6-105.1C22.5,239.9,20.6,233.5,25.9,227.9L25.9,227.9z"/>
	</g>
	<g id="fries">
		<path class="st1" d="M33.2,213.8H21.7c-6.5-17.9-13.3-35.7-20.3-53.4c-0.7-1.8-1.4-3.7-1.4-5.6c0.2-7.1,12.7-11.4,17.9-13.6
			C23,165.3,28.1,189.5,33.2,213.8z M47.3,140.9c-1.3-7.4,3.9-14.6,8.6-19.7c3.8-4.1,7.4-3.6,4.6-9.7c-3.5-8.3-4.1-4.6-27.3,0.1
			c-5-3.5,16.7,102,16.7,102h10.6L47.3,140.9L47.3,140.9z M81,220.5c0,0,7,16.4,37.6,29.9L95.7,131.9c0,0-3.5-4.1-7-4.7
			S67,133.7,67,133.7L81,220.5z M166.7,258.3c0,0,0.3-136.8,0-145s-14.4-5.9-20.8-7c-6.5-1.2-11.1,4.1-11.1,4.1v143.2L166.7,258.3
			L166.7,258.3z M183.1,259.2c0,0,29.9-7,33.5-10.6c1.2-4.1,24.1-121.8,24.1-121.8s0.6-5.6-15.3-7.9c-10-1.2-14.7-1.2-17.6,11.7
			S183.1,259.2,183.1,259.2L183.1,259.2z M242.7,226.3c0,0,9.3-20.3,34.1-16.9c2.5-12.9,16.2-95.6,16.2-95.6s3.8-10.2-11.5-11.7
			c-15.3-0.9-15.4-2.7-18.5,8.6C259.8,121.9,242.7,226.3,242.7,226.3L242.7,226.3z M238.3,111.5c0,0,10.6,6.2,10.6,11.4
			s3.5-15.1,3.5-15.1S241.9,103.7,238.3,111.5L238.3,111.5z M290.6,213.8h10.6c0,0,17-39.2,23.5-53.5s-17.6-19.2-17.6-19.2
			L290.6,213.8L290.6,213.8z M116.2,162c0,0-0.6-55.2,2.9-58.4c3.5-3.2-2.9-11.4-5.9-11.4s-22.9,5.3-22.9,5.3s0.7,1.1,1.8,2.8
			c2.9,4.6,8.7,13.7,11.2,18.4C106.8,125.1,116.2,162,116.2,162L116.2,162z M88.1,105.1c2.7,0,5.7,0.6,8.2-0.5
			c-1.3-2.7-3.2-5.2-4.8-7.7c-1.1,1.3-2.2,2.6-3.3,3.9 M185,157.1c0-20.2,3.8-33.9,8-42.1c2.1-4.3,4.4-7.1,6.2-8.7
			c4.7-23.5-28.8-14.1-28.8-14.1C185.7,96.9,184.5,117.4,185,157.1L185,157.1z M193,115l-8.3,18l0.3,30.8C185,163.9,193,115,193,115
			z"/>
	</g>
</g>
<g id="cartupdate">
	<circle class="st2" cx="284.2" cy="101.1" r="101.1"/>
	<circle class="st3" cx="287.4" cy="101.1" r="91"/>
	<text transform="matrix(1 0 0 1 238.3 152.52)" class="st2 st4 st5">0</text>
</g>
</svg>
