<?xml version="1.0" encoding="utf-8"?>
<!-- Generator: Adobe Illustrator 27.3.1, SVG Export Plug-In . SVG Version: 6.00 Build 0)  -->
<svg version="1.1" id="fries_00000002357097122098542950000003164281073148124834_"
	 xmlns="http://www.w3.org/2000/svg" xmlns:xlink="http://www.w3.org/1999/xlink" x="0px" y="0px" viewBox="0 0 325.7 364.3"
	 style="enable-background:new 0 0 325.7 364.3;" xml:space="preserve">
<style type="text/css">
	.st0{fill:#FFFFFF;stroke:#231F20;stroke-width:6;stroke-miterlimit:10;}
	.st1{fill:#FFCA34;}
</style>
<g id="fries-package">
	<path class="st0" d="M25.9,137.6c2.2-2.3,20.3-0.1,23.8-0.1h15.4c0,0,23.2,46,100.3,47.3c16.3,0.3,71.7-2.7,99.1-47.3h39.3
		c0,0,6.5-1.2,3.6,14.3s-31,202.4-31,202.4s0,5.4-8.3,6.5s-208.9,0-208.9,0s-5.4,2.4-6.5-14.3c-2-28.5-8.1-57-12.5-85.2
		c-5.5-35-11-70.1-16.6-105.1C22.5,149.5,20.6,143.2,25.9,137.6L25.9,137.6z"/>
</g>
<g id="fries">
	<path class="st1" d="M33.2,123.4H21.7C15.2,105.5,8.4,87.7,1.4,70C0.7,68.2,0,66.3,0,64.4C0.2,57.2,12.7,53,17.9,50.7
		C23,75,28.1,99.2,33.2,123.4z M47.3,50.6C46,43.2,51.1,36,55.9,30.9c3.8-4.1,7.4-3.6,4.6-9.7c-3.5-8.3-4.1-4.6-27.3,0.1
		c-5-3.5,16.7,102,16.7,102h10.6L47.3,50.6L47.3,50.6z M81,130.2c0,0,7,16.4,37.6,29.9L95.7,41.5c0,0-3.5-4.1-7-4.7
		s-21.7,6.5-21.7,6.5L81,130.2z M166.7,168c0,0,0.3-136.8,0-145s-14.4-5.9-20.8-7s-11.1,4.1-11.1,4.1v143.2L166.7,168L166.7,168z
		 M183.1,168.8c0,0,29.9-7,33.5-10.6c1.2-4.1,24.1-121.8,24.1-121.8s0.6-5.6-15.3-7.9c-10-1.2-14.7-1.2-17.6,11.7
		S183.1,168.8,183.1,168.8L183.1,168.8z M242.7,136c0,0,9.3-20.3,34.1-16.9c2.5-12.9,16.2-95.6,16.2-95.6s3.8-10.2-11.5-11.7
		c-15.3-0.9-15.4-2.7-18.5,8.6C259.8,31.6,242.7,136,242.7,136L242.7,136z M238.3,21.2c0,0,10.6,6.2,10.6,11.4s3.5-15.1,3.5-15.1
		S241.9,13.4,238.3,21.2L238.3,21.2z M290.6,123.4h10.6c0,0,17-39.2,23.5-53.5S307,50.7,307,50.7L290.6,123.4L290.6,123.4z
		 M116.2,71.7c0,0-0.6-55.2,2.9-58.4s-2.9-11.4-5.9-11.4S90.4,7.1,90.4,7.1s0.7,1.1,1.8,2.8c2.9,4.6,8.7,13.6,11.2,18.4
		C106.8,34.7,116.2,71.7,116.2,71.7L116.2,71.7z M88.1,14.8c2.7,0,5.7,0.6,8.2-0.5c-1.3-2.7-3.2-5.2-4.8-7.7
		c-1.1,1.3-2.2,2.6-3.3,3.9 M185,66.8c0-20.2,3.8-33.9,8-42.1c2.1-4.3,4.4-7.1,6.2-8.7c4.7-23.5-28.8-14.1-28.8-14.1
		C185.7,6.6,184.5,27.1,185,66.8L185,66.8z M193,24.7l-8.3,18l0.3,30.8C185,73.5,193,24.7,193,24.7z"/>
</g>
</svg>
