<?xml version="1.0" encoding="UTF-8"?>
<svg id="Layer_1" data-name="Layer 1" xmlns="http://www.w3.org/2000/svg" viewBox="0 0 385.3 454.49">
  <defs>
    <style>
      .cls-1, .cls-2, .cls-3 {
        fill: #fff;
      }

      .cls-4 {
        fill: #ffca34;
      }

      .cls-5 {
        fill: #78bc61;
      }

      .cls-2 {
        stroke: #231f20;
        stroke-miterlimit: 10;
        stroke-width: 6px;
      }

      .cls-3 {
        font-family: Figtree-ExtraBold, Figtree;
        font-size: 153.58px;
        font-weight: 700;
      }
    </style>
  </defs>
  <g id="fries">
    <g id="fries-package">
      <path class="cls-2" d="m25.9,227.9c2.2-2.3,20.3-.1,23.8-.1h15.4s23.2,46,100.3,47.3c16.3.3,71.7-2.7,99.1-47.3h39.3s6.5-1.2,3.6,14.3-31,202.4-31,202.4c0,0,0,5.4-8.3,6.5s-208.9,0-208.9,0c0,0-5.4,2.4-6.5-14.3-2-28.5-8.1-57-12.5-85.2-5.5-35-11-70.1-16.6-105.1-1.1-6.5-3-12.9,2.3-18.5h0Z"/>
    </g>
    <g id="fries-2" data-name="fries">
      <path class="cls-4" d="m33.2,213.8h-11.5c-6.5-17.9-13.3-35.7-20.3-53.4-.7-1.8-1.4-3.7-1.4-5.6.2-7.1,12.7-11.4,17.9-13.6,5.1,24.1,10.2,48.3,15.3,72.6Zm14.1-72.9c-1.3-7.4,3.9-14.6,8.6-19.7,3.8-4.1,7.4-3.6,4.6-9.7-3.5-8.3-4.1-4.6-27.3.1-5-3.5,16.7,102,16.7,102h10.6l-13.2-72.7h0Zm33.7,79.6s7,16.4,37.6,29.9l-22.9-118.5s-3.5-4.1-7-4.7-21.7,6.5-21.7,6.5l14,86.8Zm85.7,37.8s.3-136.8,0-145-14.4-5.9-20.8-7c-6.5-1.2-11.1,4.1-11.1,4.1v143.2l31.9,4.7h0Zm16.4.9s29.9-7,33.5-10.6c1.2-4.1,24.1-121.8,24.1-121.8,0,0,.6-5.6-15.3-7.9-10-1.2-14.7-1.2-17.6,11.7-2.9,12.9-24.7,128.6-24.7,128.6h0Zm59.6-32.9s9.3-20.3,34.1-16.9c2.5-12.9,16.2-95.6,16.2-95.6,0,0,3.8-10.2-11.5-11.7-15.3-.9-15.4-2.7-18.5,8.6-3.2,11.2-20.3,115.6-20.3,115.6h0Zm-4.4-114.8s10.6,6.2,10.6,11.4,3.5-15.1,3.5-15.1c0,0-10.5-4.1-14.1,3.7h0Zm52.3,102.3h10.6s17-39.2,23.5-53.5-17.6-19.2-17.6-19.2l-16.5,72.7h0Zm-174.4-51.8s-.6-55.2,2.9-58.4c3.5-3.2-2.9-11.4-5.9-11.4s-22.9,5.3-22.9,5.3c0,0,.7,1.1,1.8,2.8,2.9,4.6,8.7,13.7,11.2,18.4,3.5,6.4,12.9,43.3,12.9,43.3h0Zm-28.1-56.9c2.7,0,5.7.6,8.2-.5-1.3-2.7-3.2-5.2-4.8-7.7-1.1,1.3-2.2,2.6-3.3,3.9m96.8,56.3c0-20.2,3.8-33.9,8-42.1,2.1-4.3,4.4-7.1,6.2-8.7,4.7-23.5-28.8-14.1-28.8-14.1,15.3,4.7,14.1,25.2,14.6,64.9h0Zm8-42.1l-8.3,18,.3,30.8c0,.1,8-48.8,8-48.8Z"/>
    </g>
  </g>
  <g id="cartupdate">
    <circle class="cls-1" cx="284.2" cy="101.1" r="101.1"/>
    <circle class="cls-5" cx="287.4" cy="101.1" r="91"/>
    <text class="cls-3" transform="translate(252.4 157.1)"><tspan x="0" y="0">1</tspan></text>
  </g>
</svg>